<?xml version="1.0" standalone="no"?>
<!DOCTYPE svg PUBLIC "-//W3C//DTD SVG 20010904//EN"
 "http://www.w3.org/TR/2001/REC-SVG-20010904/DTD/svg10.dtd">
<svg version="1.0" xmlns="http://www.w3.org/2000/svg"
 width="500.000000pt" height="500.000000pt" viewBox="0 0 500.000000 500.000000"
 preserveAspectRatio="xMidYMid meet">
<metadata>
Created by potrace 1.14, written by Peter Selinger 2001-2017
</metadata>
<g transform="translate(0.000000,500.000000) scale(0.100000,-0.100000)"
fill="#000000" stroke="none">
<path d="M674 4351 c-17 -10 -40 -31 -52 -46 l-22 -28 0 -1778 0 -1778 30 -34
c16 -19 42 -40 57 -46 21 -8 501 -11 1825 -9 l1797 3 27 21 c15 11 36 31 46
45 17 23 18 99 18 1799 0 1711 -1 1776 -18 1800 -11 14 -34 35 -52 48 l-33 22
-1796 0 c-1741 0 -1797 -1 -1827 -19z m2278 -1501 c82 -27 188 -82 362 -185
78 -46 184 -105 238 -130 83 -40 107 -48 178 -52 l82 -6 -7 -52 c-6 -51 -30
-153 -38 -161 -6 -7 -480 -63 -662 -79 -259 -22 -782 -35 -1455 -35 -451 0
-591 3 -610 13 -23 12 -25 19 -28 94 -2 64 1 84 13 97 15 14 99 16 873 16 471
0 934 5 1027 10 197 12 337 31 342 45 5 16 -297 194 -379 222 -140 50 -245 42
-405 -28 -29 -12 -55 -20 -58 -17 -12 12 48 112 97 164 51 55 112 89 182 104
60 13 177 3 248 -20z m92 -1201 c9 -8 -77 -199 -90 -199 -16 0 -274 145 -274
154 0 10 76 153 93 174 7 9 38 -3 136 -54 69 -36 130 -70 135 -75z"/>
</g>
</svg>
